<svg data-v-423bf9ae="" xmlns="http://www.w3.org/2000/svg" viewBox="0 0 411 90" class="iconLeft"><!----><!----><!----><g data-v-423bf9ae="" id="5626d5be-aa51-4977-ac35-4e80f42fb7f4" fill="#FFFFFF" transform="matrix(4.507888986286435,0,0,4.507888986286435,108.46731665304699,-2.3102934415148653)"><path d="M5.25 6.30L8.06 6.30L8.06 4.58L0.34 4.58L0.34 6.30L3.15 6.30L3.15 14.35L5.25 14.35ZM15.22 14.35L16.41 14.35L16.41 12.85L15.61 12.85L15.61 9.69C15.61 7.87 14.43 6.96 12.46 6.96C10.85 6.96 9.80 7.56 9.32 8.37L10.46 9.38C10.85 8.85 11.35 8.47 12.22 8.47C13.17 8.47 13.54 8.92 13.54 9.77L13.54 10.14L12.38 10.14C10.26 10.14 9.13 10.85 9.13 12.36C9.13 13.72 10.05 14.52 11.45 14.52C12.56 14.52 13.40 14.01 13.65 13.08L13.72 13.08C13.80 13.89 14.36 14.35 15.22 14.35ZM12.24 13.16C11.58 13.16 11.16 12.89 11.16 12.39L11.16 12.11C11.16 11.55 11.61 11.26 12.43 11.26L13.54 11.26L13.54 12.12C13.54 12.80 12.96 13.16 12.24 13.16ZM20.92 14.52C23.06 14.52 24.28 13.57 24.28 12.07C24.28 10.70 23.25 10.15 21.95 9.95L20.80 9.77C20.24 9.69 19.91 9.56 19.91 9.14C19.91 8.67 20.33 8.41 21.11 8.41C22.05 8.41 22.74 8.78 23.16 9.24L24.19 8.06C23.59 7.36 22.60 6.96 21.18 6.96C19.10 6.96 17.88 7.87 17.88 9.38C17.88 10.75 18.90 11.30 20.19 11.49L21.35 11.68C21.91 11.76 22.25 11.89 22.25 12.29C22.25 12.81 21.74 13.06 20.93 13.06C19.96 13.06 19.21 12.70 18.65 12.08L17.49 13.16C18.07 14 19.32 14.52 20.92 14.52ZM26.11 3.99L26.11 14.35L28.18 14.35L28.18 11.84L28.87 11.16L30.97 14.35L33.43 14.35L30.34 9.98L33.14 7.13L30.76 7.13L29.25 8.74L28.28 9.87L28.18 9.87L28.18 3.99ZM34.55 12.74L34.55 14.35L41.05 14.35L41.05 12.74L38.84 12.74L38.84 3.99L34.55 3.99L34.55 5.60L36.76 5.60L36.76 12.74ZM46.65 6.20C47.57 6.20 47.89 5.77 47.89 5.22L47.89 4.82C47.89 4.26 47.57 3.84 46.65 3.84C45.72 3.84 45.40 4.26 45.40 4.82L45.40 5.22C45.40 5.77 45.72 6.20 46.65 6.20ZM43.32 12.74L43.32 14.35L49.81 14.35L49.81 12.74L47.68 12.74L47.68 7.13L43.32 7.13L43.32 8.74L45.61 8.74L45.61 12.74ZM51.39 12.74L51.39 14.35L57.86 14.35L57.86 12.74L55.59 12.74L55.59 8.74L58.18 8.74L58.18 7.13L55.59 7.13L55.59 5.60L58.18 5.60L58.18 3.99L55.73 3.99C54.22 3.99 53.52 4.86 53.52 6.08L53.52 7.13L51.25 7.13L51.25 8.74L53.52 8.74L53.52 12.74ZM64.82 7.13L63.74 10.16L63.11 12.26L63 12.26L62.34 10.16L61.29 7.13L59.07 7.13L61.98 14.31L61.53 15.54L59.79 15.54L59.79 17.15L61.22 17.15C62.45 17.15 63.11 16.56 63.53 15.51L66.93 7.13Z"></path></g><!----><g data-v-423bf9ae="" id="671cea68-06c5-4c59-8ee4-851064247814" transform="matrix(2.8125,0,0,2.8125,0,0)" stroke="none" fill="#4BBA5B"><path d="M16 32c8.837 0 16-7.163 16-16S24.837 0 16 0 0 7.163 0 16s7.163 16 16 16zM14.817 6.421h2v8.886h8.887v2H14.817V6.421zm-5.959.437h2v14.283h14.283v2H8.858V6.858z"></path></g><!----></svg>